%TF.GenerationSoftware,KiCad,Pcbnew,8.0.1*%
%TF.CreationDate,2024-04-06T23:47:00-04:00*%
%TF.ProjectId,MainBoard1 (1),4d61696e-426f-4617-9264-31202831292e,rev?*%
%TF.SameCoordinates,Original*%
%TF.FileFunction,Soldermask,Top*%
%TF.FilePolarity,Negative*%
%FSLAX46Y46*%
G04 Gerber Fmt 4.6, Leading zero omitted, Abs format (unit mm)*
G04 Created by KiCad (PCBNEW 8.0.1) date 2024-04-06 23:47:00*
%MOMM*%
%LPD*%
G01*
G04 APERTURE LIST*
G04 Aperture macros list*
%AMRoundRect*
0 Rectangle with rounded corners*
0 $1 Rounding radius*
0 $2 $3 $4 $5 $6 $7 $8 $9 X,Y pos of 4 corners*
0 Add a 4 corners polygon primitive as box body*
4,1,4,$2,$3,$4,$5,$6,$7,$8,$9,$2,$3,0*
0 Add four circle primitives for the rounded corners*
1,1,$1+$1,$2,$3*
1,1,$1+$1,$4,$5*
1,1,$1+$1,$6,$7*
1,1,$1+$1,$8,$9*
0 Add four rect primitives between the rounded corners*
20,1,$1+$1,$2,$3,$4,$5,0*
20,1,$1+$1,$4,$5,$6,$7,0*
20,1,$1+$1,$6,$7,$8,$9,0*
20,1,$1+$1,$8,$9,$2,$3,0*%
%AMFreePoly0*
4,1,6,1.000000,0.000000,0.500000,-0.750000,-0.500000,-0.750000,-0.500000,0.750000,0.500000,0.750000,1.000000,0.000000,1.000000,0.000000,$1*%
G04 Aperture macros list end*
%ADD10RoundRect,0.375000X-0.625000X-0.375000X0.625000X-0.375000X0.625000X0.375000X-0.625000X0.375000X0*%
%ADD11RoundRect,0.500000X-0.500000X-1.400000X0.500000X-1.400000X0.500000X1.400000X-0.500000X1.400000X0*%
%ADD12RoundRect,0.250000X-0.337500X-0.475000X0.337500X-0.475000X0.337500X0.475000X-0.337500X0.475000X0*%
%ADD13R,1.500000X1.500000*%
%ADD14FreePoly0,0.000000*%
%ADD15FreePoly0,180.000000*%
%ADD16C,3.200000*%
%ADD17R,1.651000X1.651000*%
%ADD18C,1.651000*%
%ADD19R,1.700000X1.700000*%
%ADD20O,1.700000X1.700000*%
%ADD21FreePoly0,90.000000*%
%ADD22FreePoly0,270.000000*%
%ADD23O,2.800000X3.800000*%
%ADD24C,4.750000*%
%ADD25R,4.750000X4.750000*%
%ADD26R,1.524000X1.524000*%
%ADD27C,1.524000*%
%ADD28R,1.701800X0.660400*%
%ADD29R,1.092200X2.794000*%
%ADD30RoundRect,0.250000X-0.350000X-0.450000X0.350000X-0.450000X0.350000X0.450000X-0.350000X0.450000X0*%
%ADD31R,2.540000X1.524000*%
%ADD32C,1.780000*%
%ADD33R,1.780000X7.700000*%
G04 APERTURE END LIST*
D10*
%TO.C,U3*%
X104240800Y-130846800D03*
X104240800Y-133146800D03*
D11*
X110540800Y-133146800D03*
D10*
X104240800Y-135446800D03*
%TD*%
D12*
%TO.C,C1*%
X99521100Y-135585200D03*
X101596100Y-135585200D03*
%TD*%
D13*
%TO.C,JP10*%
X154914000Y-137668000D03*
X157314000Y-137668000D03*
D14*
X154114000Y-137668000D03*
D15*
X158114000Y-137668000D03*
%TD*%
D16*
%TO.C,H3*%
X135593400Y-138265000D03*
%TD*%
D17*
%TO.C,J4*%
X67495000Y-106280000D03*
D18*
X67495000Y-103740000D03*
X67495000Y-101200000D03*
X70035000Y-106280000D03*
X70035000Y-103740000D03*
X70035000Y-101200000D03*
X72575000Y-106280000D03*
X72575000Y-103740000D03*
X72575000Y-101200000D03*
%TD*%
D19*
%TO.C,U6*%
X63975000Y-73215000D03*
D20*
X63975000Y-70675000D03*
X63975000Y-68135000D03*
%TD*%
D13*
%TO.C,JP4*%
X152686000Y-143256000D03*
X155086000Y-143256000D03*
D14*
X151886000Y-143256000D03*
D15*
X155886000Y-143256000D03*
%TD*%
D13*
%TO.C,JP1*%
X145542000Y-132486000D03*
X145542000Y-130086000D03*
D21*
X145542000Y-133286000D03*
D22*
X145542000Y-129286000D03*
%TD*%
D23*
%TO.C,J2*%
X61828000Y-149986000D03*
X78928000Y-149986000D03*
X86828000Y-149986000D03*
X103928000Y-149986000D03*
X111798000Y-149986000D03*
X128898000Y-149986000D03*
D24*
X64878000Y-143986000D03*
X70378000Y-143986000D03*
D25*
X75878000Y-143986000D03*
D24*
X89878000Y-143986000D03*
X95378000Y-143986000D03*
D25*
X100878000Y-143986000D03*
D24*
X114848000Y-143986000D03*
X120348000Y-143986000D03*
D25*
X125848000Y-143986000D03*
%TD*%
D19*
%TO.C,U1*%
X131262200Y-130054200D03*
D20*
X133802200Y-130054200D03*
%TD*%
D19*
%TO.C,U4*%
X63950000Y-83030000D03*
D20*
X63950000Y-80490000D03*
X63950000Y-77950000D03*
%TD*%
D13*
%TO.C,JP12*%
X165678000Y-143256000D03*
X168078000Y-143256000D03*
D14*
X164878000Y-143256000D03*
D15*
X168878000Y-143256000D03*
%TD*%
D13*
%TO.C,JP3*%
X160274000Y-132486000D03*
X160274000Y-130086000D03*
D21*
X160274000Y-133286000D03*
D22*
X160274000Y-129286000D03*
%TD*%
D13*
%TO.C,JP7*%
X164592000Y-132486000D03*
X164592000Y-130086000D03*
D21*
X164592000Y-133286000D03*
D22*
X164592000Y-129286000D03*
%TD*%
D16*
%TO.C,H1*%
X135593400Y-51181000D03*
%TD*%
D13*
%TO.C,JP6*%
X148564000Y-137668000D03*
X150964000Y-137668000D03*
D14*
X147764000Y-137668000D03*
D15*
X151764000Y-137668000D03*
%TD*%
D16*
%TO.C,H2*%
X86385400Y-51181000D03*
%TD*%
D13*
%TO.C,JP11*%
X168656000Y-132486000D03*
X168656000Y-130086000D03*
D21*
X168656000Y-133286000D03*
D22*
X168656000Y-129286000D03*
%TD*%
D26*
%TO.C,U8*%
X91948000Y-87222000D03*
D27*
X91948000Y-84682000D03*
X91948000Y-82142000D03*
X91948000Y-79602000D03*
X91948000Y-77062000D03*
X91948000Y-74522000D03*
X74228000Y-87222000D03*
X74228000Y-84682000D03*
X74228000Y-82142000D03*
X74228000Y-79602000D03*
X74228000Y-77062000D03*
X74228000Y-74522000D03*
%TD*%
D28*
%TO.C,J1*%
X67483900Y-48391600D03*
X67483900Y-49641600D03*
X67483900Y-50891600D03*
X67483900Y-52141600D03*
D29*
X64283899Y-46541601D03*
X64283899Y-53991599D03*
%TD*%
D30*
%TO.C,R1*%
X66950000Y-69750000D03*
X68950000Y-69750000D03*
%TD*%
D26*
%TO.C,U7*%
X62792000Y-124182000D03*
D27*
X62792000Y-121642000D03*
X62792000Y-119102000D03*
X62792000Y-116562000D03*
%TD*%
D16*
%TO.C,H4*%
X86385400Y-138265000D03*
%TD*%
D13*
%TO.C,JP5*%
X149098000Y-132486000D03*
X149098000Y-130086000D03*
D21*
X149098000Y-133286000D03*
D22*
X149098000Y-129286000D03*
%TD*%
D13*
%TO.C,JP9*%
X152654000Y-132486000D03*
X152654000Y-130086000D03*
D21*
X152654000Y-133286000D03*
D22*
X152654000Y-129286000D03*
%TD*%
D31*
%TO.C,U2*%
X121855000Y-113157000D03*
D27*
X120585000Y-113157000D03*
D31*
X121855000Y-110617000D03*
D27*
X120585000Y-110617000D03*
D31*
X121855000Y-108077000D03*
D27*
X120585000Y-108077000D03*
D31*
X121855000Y-105537000D03*
D27*
X120585000Y-105537000D03*
D31*
X121855000Y-102997000D03*
D27*
X120585000Y-102997000D03*
D31*
X121855000Y-100457000D03*
D27*
X120585000Y-100457000D03*
D31*
X121855000Y-97917000D03*
D27*
X120585000Y-97917000D03*
D31*
X121855000Y-95377000D03*
D27*
X120585000Y-95377000D03*
D31*
X121855000Y-92837000D03*
D27*
X120585000Y-92837000D03*
D31*
X121855000Y-90297000D03*
D27*
X120585000Y-90297000D03*
D31*
X121855000Y-87757000D03*
D27*
X120585000Y-87757000D03*
D31*
X121855000Y-85217000D03*
D27*
X120585000Y-85217000D03*
D31*
X121855000Y-82677000D03*
D27*
X120585000Y-82677000D03*
D31*
X121855000Y-80137000D03*
D27*
X120585000Y-80137000D03*
D31*
X121855000Y-77597000D03*
D27*
X120585000Y-77597000D03*
D31*
X121855000Y-75057000D03*
D27*
X120585000Y-75057000D03*
D31*
X121855000Y-72517000D03*
D27*
X120585000Y-72517000D03*
D31*
X121855000Y-69977000D03*
D27*
X120585000Y-69977000D03*
D31*
X121855000Y-67437000D03*
D27*
X120585000Y-67437000D03*
D31*
X121855000Y-64897000D03*
D27*
X120585000Y-64897000D03*
X102805000Y-64897000D03*
D31*
X101535000Y-64897000D03*
D27*
X102805000Y-67437000D03*
D31*
X101535000Y-67437000D03*
D27*
X102805000Y-69977000D03*
D31*
X101535000Y-69977000D03*
D27*
X102805000Y-72517000D03*
D31*
X101535000Y-72517000D03*
D27*
X102805000Y-75057000D03*
D31*
X101535000Y-75057000D03*
D27*
X102805000Y-77597000D03*
D31*
X101535000Y-77597000D03*
D27*
X102805000Y-80137000D03*
D31*
X101535000Y-80137000D03*
D27*
X102805000Y-82677000D03*
D31*
X101535000Y-82677000D03*
D27*
X102805000Y-85217000D03*
D31*
X101535000Y-85217000D03*
D27*
X102805000Y-87757000D03*
D31*
X101535000Y-87757000D03*
D27*
X102805000Y-90297000D03*
D31*
X101535000Y-90297000D03*
D27*
X102805000Y-92837000D03*
D31*
X101535000Y-92837000D03*
D27*
X102805000Y-95377000D03*
D31*
X101535000Y-95377000D03*
D27*
X102805000Y-97917000D03*
D31*
X101535000Y-97917000D03*
D27*
X102805000Y-100457000D03*
D31*
X101535000Y-100457000D03*
D27*
X102805000Y-102997000D03*
D31*
X101535000Y-102997000D03*
D27*
X102805000Y-105537000D03*
D31*
X101535000Y-105537000D03*
D27*
X102805000Y-108077000D03*
D31*
X101535000Y-108077000D03*
D27*
X102805000Y-110617000D03*
D31*
X101535000Y-110617000D03*
D27*
X102805000Y-113157000D03*
D31*
X101535000Y-113157000D03*
%TD*%
D13*
%TO.C,JP8*%
X159328000Y-143256000D03*
X161728000Y-143256000D03*
D14*
X158528000Y-143256000D03*
D15*
X162528000Y-143256000D03*
%TD*%
D16*
%TO.C,U9*%
X168175000Y-61995000D03*
X130675000Y-61995000D03*
X130675000Y-98995000D03*
X168175000Y-99495000D03*
D27*
X129875000Y-85045000D03*
X129875000Y-87585000D03*
X129875000Y-90125000D03*
X129875000Y-92665000D03*
X131575000Y-73045000D03*
X131575000Y-67965000D03*
%TD*%
D32*
%TO.C,J3*%
X145468000Y-152216000D03*
D33*
X145468000Y-156046000D03*
D32*
X148008000Y-152216000D03*
D33*
X148008000Y-156046000D03*
D32*
X150548000Y-152216000D03*
D33*
X150548000Y-156046000D03*
D32*
X153088000Y-152216000D03*
D33*
X153088000Y-156046000D03*
D32*
X155628000Y-152216000D03*
D33*
X155628000Y-156046000D03*
D32*
X158168000Y-152216000D03*
D33*
X158168000Y-156046000D03*
D32*
X160708000Y-152216000D03*
D33*
X160708000Y-156046000D03*
D32*
X163248000Y-152216000D03*
D33*
X163248000Y-156046000D03*
D32*
X165788000Y-152216000D03*
D33*
X165788000Y-156046000D03*
D32*
X168328000Y-152216000D03*
D33*
X168328000Y-156046000D03*
%TD*%
D13*
%TO.C,JP2*%
X142278000Y-137668000D03*
X144678000Y-137668000D03*
D14*
X141478000Y-137668000D03*
D15*
X145478000Y-137668000D03*
%TD*%
D12*
%TO.C,C2*%
X113106200Y-133248400D03*
X115181200Y-133248400D03*
%TD*%
D19*
%TO.C,U5*%
X86639400Y-43865800D03*
D20*
X86639400Y-46405800D03*
X89179400Y-43865800D03*
X89179400Y-46405800D03*
X91719400Y-43865800D03*
X91719400Y-46405800D03*
X94259400Y-43865800D03*
X94259400Y-46405800D03*
X96799400Y-43865800D03*
X96799400Y-46405800D03*
X99339400Y-43865800D03*
X99339400Y-46405800D03*
X101879400Y-43865800D03*
X101879400Y-46405800D03*
X104419400Y-43865800D03*
X104419400Y-46405800D03*
X106959400Y-43865800D03*
X106959400Y-46405800D03*
X109499400Y-43865800D03*
X109499400Y-46405800D03*
X112039400Y-43865800D03*
X112039400Y-46405800D03*
X114579400Y-43865800D03*
X114579400Y-46405800D03*
X117119400Y-43865800D03*
X117119400Y-46405800D03*
X119659400Y-43865800D03*
X119659400Y-46405800D03*
X122199400Y-43865800D03*
X122199400Y-46405800D03*
X124739400Y-43865800D03*
X124739400Y-46405800D03*
X127279400Y-43865800D03*
X127279400Y-46405800D03*
X129819400Y-43865800D03*
X129819400Y-46405800D03*
X132359400Y-43865800D03*
X132359400Y-46405800D03*
X134899400Y-43865800D03*
X134899400Y-46405800D03*
%TD*%
M02*
