%TF.GenerationSoftware,KiCad,Pcbnew,8.0.1*%
%TF.CreationDate,2024-04-06T23:47:00-04:00*%
%TF.ProjectId,MainBoard1 (1),4d61696e-426f-4617-9264-31202831292e,rev?*%
%TF.SameCoordinates,Original*%
%TF.FileFunction,Legend,Bot*%
%TF.FilePolarity,Positive*%
%FSLAX46Y46*%
G04 Gerber Fmt 4.6, Leading zero omitted, Abs format (unit mm)*
G04 Created by KiCad (PCBNEW 8.0.1) date 2024-04-06 23:47:00*
%MOMM*%
%LPD*%
G01*
G04 APERTURE LIST*
%ADD10C,0.150000*%
%ADD11C,0.508000*%
%ADD12C,0.120000*%
G04 APERTURE END LIST*
D10*
X83764219Y-44373895D02*
X84573742Y-44373895D01*
X84573742Y-44373895D02*
X84668980Y-44421514D01*
X84668980Y-44421514D02*
X84716600Y-44469133D01*
X84716600Y-44469133D02*
X84764219Y-44564371D01*
X84764219Y-44564371D02*
X84764219Y-44754847D01*
X84764219Y-44754847D02*
X84716600Y-44850085D01*
X84716600Y-44850085D02*
X84668980Y-44897704D01*
X84668980Y-44897704D02*
X84573742Y-44945323D01*
X84573742Y-44945323D02*
X83764219Y-44945323D01*
X83764219Y-45897704D02*
X83764219Y-45421514D01*
X83764219Y-45421514D02*
X84240409Y-45373895D01*
X84240409Y-45373895D02*
X84192790Y-45421514D01*
X84192790Y-45421514D02*
X84145171Y-45516752D01*
X84145171Y-45516752D02*
X84145171Y-45754847D01*
X84145171Y-45754847D02*
X84192790Y-45850085D01*
X84192790Y-45850085D02*
X84240409Y-45897704D01*
X84240409Y-45897704D02*
X84335647Y-45945323D01*
X84335647Y-45945323D02*
X84573742Y-45945323D01*
X84573742Y-45945323D02*
X84668980Y-45897704D01*
X84668980Y-45897704D02*
X84716600Y-45850085D01*
X84716600Y-45850085D02*
X84764219Y-45754847D01*
X84764219Y-45754847D02*
X84764219Y-45516752D01*
X84764219Y-45516752D02*
X84716600Y-45421514D01*
X84716600Y-45421514D02*
X84668980Y-45373895D01*
D11*
%TO.C,J1*%
X67864900Y-44234100D02*
G75*
G02*
X67102900Y-44234100I-381000J0D01*
G01*
X67102900Y-44234100D02*
G75*
G02*
X67864900Y-44234100I381000J0D01*
G01*
D12*
%TO.C,U5*%
X85309400Y-42535800D02*
X86639400Y-42535800D01*
X85309400Y-43865800D02*
X85309400Y-42535800D01*
X85309400Y-45135800D02*
X87909400Y-45135800D01*
X85309400Y-47735800D02*
X85309400Y-45135800D01*
X87909400Y-45135800D02*
X87909400Y-42535800D01*
X136229400Y-42535800D02*
X87909400Y-42535800D01*
X136229400Y-47735800D02*
X85309400Y-47735800D01*
X136229400Y-47735800D02*
X136229400Y-42535800D01*
%TD*%
M02*
